G04 #@! TF.GenerationSoftware,KiCad,Pcbnew,9.0.2*
G04 #@! TF.CreationDate,2026-01-10T18:17:22+09:00*
G04 #@! TF.ProjectId,Companion_totem_TP,436f6d70-616e-4696-9f6e-5f746f74656d,0.3*
G04 #@! TF.SameCoordinates,Original*
G04 #@! TF.FileFunction,Soldermask,Top*
G04 #@! TF.FilePolarity,Negative*
%FSLAX46Y46*%
G04 Gerber Fmt 4.6, Leading zero omitted, Abs format (unit mm)*
G04 Created by KiCad (PCBNEW 9.0.2) date 2026-01-10 18:17:22*
%MOMM*%
%LPD*%
G01*
G04 APERTURE LIST*
G04 Aperture macros list*
%AMRoundRect*
0 Rectangle with rounded corners*
0 $1 Rounding radius*
0 $2 $3 $4 $5 $6 $7 $8 $9 X,Y pos of 4 corners*
0 Add a 4 corners polygon primitive as box body*
4,1,4,$2,$3,$4,$5,$6,$7,$8,$9,$2,$3,0*
0 Add four circle primitives for the rounded corners*
1,1,$1+$1,$2,$3*
1,1,$1+$1,$4,$5*
1,1,$1+$1,$6,$7*
1,1,$1+$1,$8,$9*
0 Add four rect primitives between the rounded corners*
20,1,$1+$1,$2,$3,$4,$5,0*
20,1,$1+$1,$4,$5,$6,$7,0*
20,1,$1+$1,$6,$7,$8,$9,0*
20,1,$1+$1,$8,$9,$2,$3,0*%
%AMRotRect*
0 Rectangle, with rotation*
0 The origin of the aperture is its center*
0 $1 length*
0 $2 width*
0 $3 Rotation angle, in degrees counterclockwise*
0 Add horizontal line*
21,1,$1,$2,0,0,$3*%
%AMFreePoly0*
4,1,15,-0.616000,0.142500,-0.283500,0.475000,0.521000,0.475000,0.557355,0.467769,0.588175,0.447175,0.608769,0.416355,0.616000,0.380000,0.616000,-0.380000,0.608769,-0.416355,0.588175,-0.447175,0.557355,-0.467769,0.521000,-0.475000,-0.283500,-0.475000,-0.616000,-0.142500,-0.616000,0.142500,-0.616000,0.142500,$1*%
G04 Aperture macros list end*
%ADD10C,0.750000*%
%ADD11RoundRect,0.237500X-0.237500X0.250000X-0.237500X-0.250000X0.237500X-0.250000X0.237500X0.250000X0*%
%ADD12C,1.900000*%
%ADD13C,1.600000*%
%ADD14C,3.050000*%
%ADD15C,5.050000*%
%ADD16R,1.143000X0.635000*%
%ADD17RoundRect,0.095000X0.380000X-0.921000X0.380000X0.921000X-0.380000X0.921000X-0.380000X-0.921000X0*%
%ADD18RoundRect,0.095000X-0.380000X0.921000X-0.380000X-0.921000X0.380000X-0.921000X0.380000X0.921000X0*%
%ADD19O,1.800000X2.750000*%
%ADD20FreePoly0,90.000000*%
%ADD21FreePoly0,270.000000*%
%ADD22C,1.397000*%
%ADD23RoundRect,0.250537X-1.099463X0.449463X-1.099463X-0.449463X1.099463X-0.449463X1.099463X0.449463X0*%
%ADD24RoundRect,0.250537X1.099463X-0.449463X1.099463X0.449463X-1.099463X0.449463X-1.099463X-0.449463X0*%
%ADD25C,2.500000*%
%ADD26C,2.100000*%
%ADD27C,5.600000*%
%ADD28RotRect,1.800000X1.500000X170.000000*%
%ADD29C,0.900000*%
%ADD30R,0.700000X1.000000*%
%ADD31R,1.000000X2.800000*%
%ADD32RoundRect,0.237500X-0.237500X0.300000X-0.237500X-0.300000X0.237500X-0.300000X0.237500X0.300000X0*%
%ADD33C,4.200000*%
%ADD34RoundRect,0.237500X0.237500X-0.250000X0.237500X0.250000X-0.237500X0.250000X-0.237500X-0.250000X0*%
%ADD35C,1.701800*%
%ADD36C,3.429000*%
%ADD37C,1.800000*%
%ADD38C,1.500000*%
%ADD39C,2.200000*%
%ADD40O,2.500000X1.800000*%
%ADD41C,0.500000*%
%ADD42RoundRect,0.250000X-0.250000X-0.750000X0.250000X-0.750000X0.250000X0.750000X-0.250000X0.750000X0*%
%ADD43C,2.000000*%
%ADD44O,1.200000X1.750000*%
G04 APERTURE END LIST*
D10*
X210500000Y-99000000D02*
X210500000Y-103000000D01*
X212000000Y-101000000D02*
X212000000Y-103000000D01*
X209000000Y-101000000D02*
X209000000Y-103000000D01*
X209000000Y-101000000D02*
X212000000Y-101000000D01*
D11*
X239177750Y-111121250D03*
X239177750Y-112946250D03*
D12*
X173253245Y-99324549D03*
D13*
X173753245Y-104474549D03*
D14*
X178753245Y-93424549D03*
D15*
X178753245Y-99324549D03*
D14*
X183753245Y-95524549D03*
D12*
X184253245Y-99324549D03*
X227430087Y-97987331D03*
D13*
X227569623Y-103159664D03*
D14*
X233328252Y-92485364D03*
D15*
X232916689Y-98370992D03*
D14*
X238169584Y-94929031D03*
D12*
X238403291Y-98754653D03*
D16*
X231027750Y-111733370D03*
X231027750Y-112734130D03*
D17*
X266419500Y-51345000D03*
D13*
X266420000Y-51980000D03*
D17*
X263879500Y-51345000D03*
D13*
X263880000Y-51980000D03*
D17*
X261339500Y-51345000D03*
D13*
X261340000Y-51980000D03*
D17*
X258799500Y-51345000D03*
D13*
X258800000Y-51980000D03*
D17*
X256259500Y-51345000D03*
D13*
X256260000Y-51980000D03*
D17*
X253719500Y-51345000D03*
D13*
X253720000Y-51980000D03*
D17*
X251179500Y-51345000D03*
D13*
X251180000Y-51980000D03*
X251180000Y-67220000D03*
D18*
X251179500Y-67855000D03*
D13*
X253720000Y-67220000D03*
D18*
X253719500Y-67855000D03*
D13*
X256260000Y-67220000D03*
D18*
X256259500Y-67855000D03*
D13*
X258800000Y-67220000D03*
D18*
X258799500Y-67855000D03*
D19*
X261340000Y-67695000D03*
X263880000Y-67695000D03*
X266420000Y-67695000D03*
D20*
X265149500Y-50945000D03*
X262609500Y-50945000D03*
X260069500Y-50945000D03*
X257529500Y-50945000D03*
X254989500Y-50945000D03*
X252449500Y-50945000D03*
D21*
X252449500Y-68255000D03*
X254989500Y-68255000D03*
X257529500Y-68255000D03*
D22*
X267372000Y-58330000D03*
X267372000Y-60870000D03*
X264832000Y-58330000D03*
X264832000Y-60870000D03*
D23*
X253281677Y-58706012D03*
D24*
X253256430Y-60500000D03*
D25*
X213000000Y-99000000D03*
D12*
X250136122Y-79059283D03*
D13*
X249734238Y-84217867D03*
D14*
X256577089Y-74203982D03*
D15*
X255552565Y-80014348D03*
D14*
X261136467Y-77140319D03*
D12*
X260969008Y-80969413D03*
X263286122Y-108134283D03*
D13*
X262884238Y-113292867D03*
D14*
X269727089Y-103278982D03*
D15*
X268702565Y-109089348D03*
D14*
X274286467Y-106215319D03*
D12*
X274119008Y-110044413D03*
X191253205Y-96604887D03*
D13*
X191753205Y-101754887D03*
D14*
X196753205Y-90704887D03*
D15*
X196753205Y-96604887D03*
D14*
X201753205Y-92804887D03*
D12*
X202253205Y-96604887D03*
D26*
X173500000Y-53850000D03*
X180500000Y-53850000D03*
D27*
X265700000Y-121000000D03*
X243000000Y-52700000D03*
D12*
X176564973Y-121512853D03*
D13*
X178380854Y-126357961D03*
D14*
X180350533Y-114390386D03*
D15*
X181877565Y-120089348D03*
D14*
X185723682Y-115124735D03*
D12*
X187190157Y-118665843D03*
D28*
X267674173Y-98795202D03*
X264325827Y-98204798D03*
D12*
X158664063Y-130514348D03*
D13*
X161672076Y-134724379D03*
D14*
X160477203Y-122654798D03*
D15*
X163427203Y-127764348D03*
D14*
X165857330Y-121973451D03*
D12*
X168190343Y-125014348D03*
X228615963Y-81028523D03*
D13*
X228755499Y-86200856D03*
D14*
X234514128Y-75526556D03*
D15*
X234102565Y-81412184D03*
D14*
X239355460Y-77970223D03*
D12*
X239589167Y-81795845D03*
X173253245Y-65324549D03*
D13*
X173753245Y-70474549D03*
D14*
X178753245Y-59424549D03*
D15*
X178753245Y-65324549D03*
D14*
X183753245Y-61524549D03*
D12*
X184253245Y-65324549D03*
D29*
X233550000Y-51350000D03*
X236550000Y-51400000D03*
D30*
X237300000Y-53200000D03*
X234300000Y-53200000D03*
X232800000Y-53200000D03*
D31*
X238900000Y-51300000D03*
X230950000Y-51300000D03*
D12*
X202253205Y-79604667D03*
D13*
X201753205Y-74454667D03*
D14*
X196753205Y-85504667D03*
D15*
X196753205Y-79604667D03*
D14*
X191753205Y-83404667D03*
D12*
X191253205Y-79604667D03*
D32*
X237177750Y-111171250D03*
X237177750Y-112896250D03*
D12*
X247184063Y-95801232D03*
D13*
X246782179Y-100959816D03*
D14*
X253625030Y-90945931D03*
D15*
X252600506Y-96756297D03*
D14*
X258184408Y-93882268D03*
D12*
X258016949Y-97711362D03*
D33*
X178753225Y-72464608D03*
X196753225Y-72464608D03*
D12*
X209253165Y-71168188D03*
D13*
X209753165Y-76318188D03*
D14*
X214753165Y-65268188D03*
D15*
X214753165Y-71168188D03*
D14*
X219753165Y-67368188D03*
D12*
X220253165Y-71168188D03*
D34*
X235177750Y-112946250D03*
X235177750Y-111121250D03*
D25*
X208000000Y-99000000D03*
D35*
X196278165Y-117314348D03*
X201778165Y-111814348D03*
D36*
X201778165Y-117314348D03*
D37*
X201778165Y-122814348D03*
D35*
X207278165Y-117314348D03*
D38*
X207778165Y-111214348D03*
D25*
X195878165Y-117314348D03*
X201778165Y-123214348D03*
D39*
X196778165Y-121114348D03*
X197978165Y-112314348D03*
D40*
X207778165Y-121374348D03*
X207778165Y-118834348D03*
X207778165Y-116294348D03*
X207778165Y-113754348D03*
X209853165Y-124214348D03*
X206853165Y-124214348D03*
D33*
X197003225Y-72464608D03*
X178503225Y-72464608D03*
D12*
X209253165Y-54167968D03*
D13*
X209753165Y-59317968D03*
D14*
X214753165Y-48267968D03*
D15*
X214753165Y-54167968D03*
D14*
X219753165Y-50367968D03*
D12*
X220253165Y-54167968D03*
X229801838Y-64069714D03*
D13*
X229941374Y-69242047D03*
D14*
X235700003Y-58567747D03*
D15*
X235288440Y-64453375D03*
D14*
X240541335Y-61011414D03*
D12*
X240775042Y-64837036D03*
D11*
X233177750Y-111121250D03*
X233177750Y-112946250D03*
D12*
X244232008Y-112543180D03*
D13*
X243830124Y-117701764D03*
D14*
X250672975Y-107687879D03*
D15*
X249648451Y-113498245D03*
D14*
X255232353Y-110624216D03*
D12*
X255064894Y-114453310D03*
D41*
X156625000Y-82114348D03*
X156625000Y-83594348D03*
X156625000Y-84334348D03*
X156625000Y-85074348D03*
X156625000Y-85814348D03*
X156625000Y-86554348D03*
X156625000Y-87294348D03*
X156625000Y-88034348D03*
X156625000Y-88774348D03*
X156625000Y-89514348D03*
X156625000Y-90254348D03*
X156625000Y-90994348D03*
X156625000Y-91734348D03*
X156625000Y-92474348D03*
X156625000Y-93214348D03*
X156625000Y-93954348D03*
X156625000Y-94694348D03*
X156625000Y-95434348D03*
X156625000Y-96174348D03*
X156625000Y-96914348D03*
X156625000Y-97654348D03*
X156625000Y-99134348D03*
D12*
X209253165Y-88168408D03*
D13*
X209753165Y-93318408D03*
D14*
X214753165Y-82268408D03*
D15*
X214753165Y-88168408D03*
D14*
X219753165Y-84368408D03*
D12*
X220253165Y-88168408D03*
D27*
X160500000Y-112000000D03*
D42*
X240177750Y-115488750D03*
X238177750Y-115488750D03*
X236177750Y-115488750D03*
X234177750Y-115488750D03*
X232177750Y-115488750D03*
D12*
X166253245Y-90824549D03*
D13*
X165753245Y-85674549D03*
D14*
X160753245Y-96724549D03*
D15*
X160753245Y-90824549D03*
D14*
X155753245Y-94624549D03*
D12*
X155253245Y-90824549D03*
D43*
X159809000Y-51540000D03*
D44*
X160609000Y-51540000D03*
X162609000Y-51540000D03*
D43*
X163409000Y-51540000D03*
D12*
X191253205Y-62604447D03*
D13*
X191753205Y-67754447D03*
D14*
X196753205Y-56704447D03*
D15*
X196753205Y-62604447D03*
D14*
X201753205Y-58804447D03*
D12*
X202253205Y-62604447D03*
X184253245Y-82324549D03*
D13*
X183753245Y-77174549D03*
D14*
X178753245Y-88224549D03*
D15*
X178753245Y-82324549D03*
D14*
X173753245Y-86124549D03*
D12*
X173253245Y-82324549D03*
D27*
X168800000Y-52700000D03*
M02*
