M48
; DRILL file {KiCad 9.0.2} date 2026-01-10T18:17:24+0900
; FORMAT={-:-/ absolute / metric / decimal}
; #@! TF.CreationDate,2026-01-10T18:17:24+09:00
; #@! TF.GenerationSoftware,Kicad,Pcbnew,9.0.2
; #@! TF.FileFunction,NonPlated,1,2,NPTH
FMAT,2
METRIC
; #@! TA.AperFunction,NonPlated,NPTH,ComponentDrill
T1C0.500
; #@! TA.AperFunction,NonPlated,NPTH,ComponentDrill
T2C0.700
; #@! TA.AperFunction,NonPlated,NPTH,ComponentDrill
T3C1.500
; #@! TA.AperFunction,NonPlated,NPTH,ComponentDrill
T4C1.600
; #@! TA.AperFunction,NonPlated,NPTH,ComponentDrill
T5C1.702
; #@! TA.AperFunction,NonPlated,NPTH,ComponentDrill
T6C1.900
; #@! TA.AperFunction,NonPlated,NPTH,ComponentDrill
T7C3.050
; #@! TA.AperFunction,NonPlated,NPTH,ComponentDrill
T8C3.429
; #@! TA.AperFunction,NonPlated,NPTH,ComponentDrill
T9C5.050
%
G90
G05
T1
X156.625Y-82.114
X156.625Y-83.594
X156.625Y-84.334
X156.625Y-85.074
X156.625Y-85.814
X156.625Y-86.554
X156.625Y-87.294
X156.625Y-88.034
X156.625Y-88.774
X156.625Y-89.514
X156.625Y-90.254
X156.625Y-90.994
X156.625Y-91.734
X156.625Y-92.474
X156.625Y-93.214
X156.625Y-93.954
X156.625Y-94.694
X156.625Y-95.434
X156.625Y-96.174
X156.625Y-96.914
X156.625Y-97.654
X156.625Y-99.134
T2
X233.55Y-51.35
X236.55Y-51.4
T3
X207.778Y-111.214
T4
X161.672Y-134.724
X165.753Y-85.675
X173.753Y-70.475
X173.753Y-104.475
X178.381Y-126.358
X183.753Y-77.175
X191.753Y-67.754
X191.753Y-101.755
X201.753Y-74.455
X209.753Y-59.318
X209.753Y-76.318
X209.753Y-93.318
X227.57Y-103.16
X228.755Y-86.201
X229.941Y-69.242
X243.83Y-117.702
X246.782Y-100.96
X249.734Y-84.218
X262.884Y-113.293
T5
X196.278Y-117.314
X201.778Y-111.814
X207.278Y-117.314
T6
X155.253Y-90.825
X158.664Y-130.514
X166.253Y-90.825
X168.19Y-125.014
X173.253Y-65.325
X173.253Y-82.325
X173.253Y-99.325
X176.565Y-121.513
X184.253Y-65.325
X184.253Y-82.325
X184.253Y-99.325
X187.19Y-118.666
X191.253Y-62.604
X191.253Y-79.605
X191.253Y-96.605
X202.253Y-62.604
X202.253Y-79.605
X202.253Y-96.605
X209.253Y-54.168
X209.253Y-71.168
X209.253Y-88.168
X220.253Y-54.168
X220.253Y-71.168
X220.253Y-88.168
X227.43Y-97.987
X228.616Y-81.029
X229.802Y-64.07
X238.403Y-98.755
X239.589Y-81.796
X240.775Y-64.837
X244.232Y-112.543
X247.184Y-95.801
X250.136Y-79.059
X255.065Y-114.453
X258.017Y-97.711
X260.969Y-80.969
X263.286Y-108.134
X274.119Y-110.044
T7
X155.753Y-94.625
X160.477Y-122.655
X160.753Y-96.725
X165.857Y-121.973
X173.753Y-86.125
X178.753Y-59.425
X178.753Y-88.225
X178.753Y-93.425
X180.351Y-114.39
X183.753Y-61.525
X183.753Y-95.525
X185.724Y-115.125
X191.753Y-83.405
X196.753Y-56.704
X196.753Y-85.505
X196.753Y-90.705
X201.753Y-58.804
X201.753Y-92.805
X214.753Y-48.268
X214.753Y-65.268
X214.753Y-82.268
X219.753Y-50.368
X219.753Y-67.368
X219.753Y-84.368
X233.328Y-92.485
X234.514Y-75.527
X235.7Y-58.568
X238.17Y-94.929
X239.355Y-77.97
X240.541Y-61.011
X250.673Y-107.688
X253.625Y-90.946
X255.232Y-110.624
X256.577Y-74.204
X258.184Y-93.882
X261.136Y-77.14
X269.727Y-103.279
X274.286Y-106.215
T8
X201.778Y-117.314
T9
X160.753Y-90.825
X163.427Y-127.764
X178.753Y-65.325
X178.753Y-82.325
X178.753Y-99.325
X181.878Y-120.089
X196.753Y-62.604
X196.753Y-79.605
X196.753Y-96.605
X214.753Y-54.168
X214.753Y-71.168
X214.753Y-88.168
X232.917Y-98.371
X234.103Y-81.412
X235.288Y-64.453
X249.648Y-113.498
X252.601Y-96.756
X255.553Y-80.014
X268.703Y-109.089
M30
