M48
; DRILL file {KiCad 9.0.2} date 2026-01-10T18:17:24+0900
; FORMAT={-:-/ absolute / metric / decimal}
; #@! TF.CreationDate,2026-01-10T18:17:24+09:00
; #@! TF.GenerationSoftware,Kicad,Pcbnew,9.0.2
; #@! TF.FileFunction,Plated,1,2,PTH
FMAT,2
METRIC
; #@! TA.AperFunction,Plated,PTH,ViaDrill
T1C0.300
; #@! TA.AperFunction,Plated,PTH,ComponentDrill
T2C0.750
; #@! TA.AperFunction,Plated,PTH,ComponentDrill
T3C1.000
; #@! TA.AperFunction,Plated,PTH,ComponentDrill
T4C1.016
; #@! TA.AperFunction,Plated,PTH,ComponentDrill
T5C1.250
; #@! TA.AperFunction,Plated,PTH,ComponentDrill
T6C1.300
; #@! TA.AperFunction,Plated,PTH,ComponentDrill
T7C1.500
; #@! TA.AperFunction,Plated,PTH,ComponentDrill
T8C1.702
; #@! TA.AperFunction,Plated,PTH,ComponentDrill
T9C2.500
; #@! TA.AperFunction,Plated,PTH,ComponentDrill
T10C3.200
%
G90
G05
T1
X158.109Y-82.64
X158.109Y-87.74
X158.109Y-108.415
X159.322Y-63.982
X159.322Y-71.232
X159.322Y-78.497
X160.569Y-115.876
X162.872Y-63.672
X162.872Y-70.932
X162.872Y-78.232
X163.859Y-83.99
X165.17Y-80.59
X165.834Y-111.715
X166.422Y-63.512
X166.422Y-70.542
X166.422Y-77.962
X168.109Y-96.99
X168.109Y-102.29
X169.709Y-67.49
X170.972Y-125.036
X171.984Y-117.89
X172.059Y-96.44
X172.909Y-90.815
X174.334Y-83.99
X175.614Y-57.372
X177.165Y-68.364
X178.75Y-112.209
X179.39Y-55.793
X180.109Y-103.19
X185.384Y-85.99
X187.234Y-87.84
X187.234Y-91.24
X188.895Y-123.998
X191.959Y-88.715
X192.309Y-65.765
X193.481Y-51.333
X194.409Y-87.615
X194.409Y-88.715
X194.647Y-102.481
X194.686Y-68.6
X194.695Y-85.553
X195.209Y-103.29
X195.809Y-67.74
X195.809Y-109.39
X197.309Y-101.94
X204.784Y-90.19
X206.609Y-90.19
X209.575Y-47.039
X218.509Y-59.14
X222.91Y-91.79
X223.028Y-74.994
X223.309Y-59.19
X223.609Y-91.19
X228.09Y-54.033
X228.245Y-57.319
X232.084Y-108.04
X232.178Y-115.489
X233.459Y-54.44
X234.178Y-115.489
X234.655Y-104.303
X235.038Y-51.368
X236.178Y-115.489
X237.184Y-109.49
X238.178Y-115.489
X239.034Y-104.49
X239.109Y-109.44
X239.659Y-104.49
X240.034Y-107.515
X240.178Y-115.489
X240.284Y-104.49
X240.909Y-104.49
X241.428Y-101.794
X242.428Y-84.894
X243.728Y-67.894
X247.209Y-102.615
X247.229Y-67.22
X247.959Y-54.515
X249.161Y-51.572
X250.16Y-53.16
X252.466Y-65.781
X255.001Y-65.781
X257.537Y-65.781
X258.428Y-116.294
X259.984Y-69.715
X260.07Y-56.179
X260.072Y-65.799
X261.209Y-56.215
X261.43Y-96.21
X262.609Y-69.19
X263.584Y-114.74
X264.328Y-82.894
X264.475Y-99.525
X265.109Y-111.963
X266.87Y-95.65
X266.918Y-97.088
X267.895Y-97.028
X268.41Y-96.31
X269.313Y-105.994
X276.628Y-111.894
T2
X160.609Y-51.54
X162.609Y-51.54
T3
X174.5Y-51.35
X179.5Y-51.35
X251.18Y-51.98
X251.18Y-67.22
X253.72Y-51.98
X253.72Y-67.22
X256.26Y-51.98
X256.26Y-67.22
X258.8Y-51.98
X258.8Y-67.22
X261.34Y-51.98
X261.34Y-67.22
X263.88Y-51.98
X263.88Y-67.22
X266.42Y-51.98
X266.42Y-67.22
T4
X264.832Y-58.33
X264.832Y-60.87
X267.372Y-58.33
X267.372Y-60.87
T5
X159.809Y-51.54
X163.409Y-51.54
X208.0Y-99.0
X213.0Y-99.0
T6
X173.5Y-53.85
X180.5Y-53.85
T7
X195.878Y-117.314
X196.778Y-121.114
X197.978Y-112.314
X201.778Y-123.214
X207.353Y-124.214
X207.778Y-113.754
X207.778Y-116.294
X207.778Y-118.834
X207.778Y-121.374
X209.353Y-124.214
T8
X201.778Y-122.814
T9
X178.503Y-72.465
X178.753Y-72.465
X196.753Y-72.465
X197.003Y-72.465
T10
X160.5Y-112.0
X168.8Y-52.7
X243.0Y-52.7
X265.7Y-121.0
T3
G00X252.506Y-60.3
M15
G01X254.006Y-60.3
M16
G05
G00X254.032Y-58.906
M15
G01X252.532Y-58.906
M16
G05
M30
