G04 #@! TF.GenerationSoftware,KiCad,Pcbnew,9.0.2*
G04 #@! TF.CreationDate,2026-01-10T18:17:22+09:00*
G04 #@! TF.ProjectId,Companion_totem_TP,436f6d70-616e-4696-9f6e-5f746f74656d,0.3*
G04 #@! TF.SameCoordinates,Original*
G04 #@! TF.FileFunction,Paste,Bot*
G04 #@! TF.FilePolarity,Positive*
%FSLAX46Y46*%
G04 Gerber Fmt 4.6, Leading zero omitted, Abs format (unit mm)*
G04 Created by KiCad (PCBNEW 9.0.2) date 2026-01-10 18:17:22*
%MOMM*%
%LPD*%
G01*
G04 APERTURE LIST*
G04 Aperture macros list*
%AMRoundRect*
0 Rectangle with rounded corners*
0 $1 Rounding radius*
0 $2 $3 $4 $5 $6 $7 $8 $9 X,Y pos of 4 corners*
0 Add a 4 corners polygon primitive as box body*
4,1,4,$2,$3,$4,$5,$6,$7,$8,$9,$2,$3,0*
0 Add four circle primitives for the rounded corners*
1,1,$1+$1,$2,$3*
1,1,$1+$1,$4,$5*
1,1,$1+$1,$6,$7*
1,1,$1+$1,$8,$9*
0 Add four rect primitives between the rounded corners*
20,1,$1+$1,$2,$3,$4,$5,0*
20,1,$1+$1,$4,$5,$6,$7,0*
20,1,$1+$1,$6,$7,$8,$9,0*
20,1,$1+$1,$8,$9,$2,$3,0*%
G04 Aperture macros list end*
%ADD10RoundRect,0.250000X-1.025000X-1.000000X1.025000X-1.000000X1.025000X1.000000X-1.025000X1.000000X0*%
%ADD11RoundRect,0.250000X-1.092260X-0.926064X0.952747X-1.069064X1.092260X0.926064X-0.952747X1.069064X0*%
%ADD12RoundRect,0.250000X-1.183076X-0.806818X0.835780X-1.162797X1.183076X0.806818X-0.835780X1.162797X0*%
%ADD13RoundRect,0.250000X-0.731255X-1.231215X1.248893X-0.700636X0.731255X1.231215X-1.248893X0.700636X0*%
%ADD14RoundRect,0.250000X-0.387676X-1.378525X1.387676X-0.353525X0.387676X1.378525X-1.387676X0.353525X0*%
%ADD15RoundRect,0.250000X1.025000X1.000000X-1.025000X1.000000X-1.025000X-1.000000X1.025000X-1.000000X0*%
%ADD16RoundRect,0.250000X0.250000X0.750000X-0.250000X0.750000X-0.250000X-0.750000X0.250000X-0.750000X0*%
%ADD17R,1.500000X1.800000*%
%ADD18R,1.800000X1.500000*%
G04 APERTURE END LIST*
D10*
X175253245Y-93324549D03*
X187253245Y-95524549D03*
D11*
X229843754Y-92141460D03*
X241661058Y-95173179D03*
D12*
X253147627Y-73497733D03*
X264583294Y-77748088D03*
X266297627Y-102572733D03*
X277733294Y-106823088D03*
D10*
X193253205Y-90604887D03*
X205253205Y-92804887D03*
D13*
X176943910Y-115199660D03*
X189104422Y-114218868D03*
D14*
X157396114Y-124318196D03*
X168888419Y-120223451D03*
D11*
X231029630Y-75182652D03*
X242846934Y-78214371D03*
D10*
X175253245Y-59324549D03*
X187253245Y-61524549D03*
D15*
X200253205Y-85604667D03*
X188253205Y-83404667D03*
D12*
X250195568Y-90239682D03*
X261631235Y-94490037D03*
D10*
X211253165Y-65168188D03*
X223253165Y-67368188D03*
X211253165Y-48167968D03*
X223253165Y-50367968D03*
D11*
X232215505Y-58223843D03*
X244032809Y-61255562D03*
D12*
X247243513Y-106981630D03*
X258679180Y-111231985D03*
D10*
X211253165Y-82168408D03*
X223253165Y-84368408D03*
D16*
X240177750Y-115488750D03*
X238177750Y-115488750D03*
X236177750Y-115488750D03*
X234177750Y-115488750D03*
X232177750Y-115488750D03*
D15*
X164253245Y-96824549D03*
X152253245Y-94624549D03*
D10*
X193253205Y-56604447D03*
X205253205Y-58804447D03*
D15*
X182253245Y-88324549D03*
X170253245Y-86124549D03*
D17*
X187234000Y-87840000D03*
X187234000Y-91240000D03*
X166422435Y-100694348D03*
X166422435Y-104094348D03*
X159322435Y-58597348D03*
X159322435Y-61997348D03*
X162872435Y-65796348D03*
X162872435Y-69196348D03*
D18*
X189134000Y-56165000D03*
X185734000Y-56165000D03*
D17*
X162872435Y-58597348D03*
X162872435Y-61997348D03*
X167009000Y-96940000D03*
X167009000Y-93540000D03*
X159322435Y-100694348D03*
X159322435Y-104094348D03*
X162872435Y-100694348D03*
X162872435Y-104094348D03*
D18*
X178609000Y-102915000D03*
X182009000Y-102915000D03*
D17*
X162872435Y-72995348D03*
X162872435Y-76395348D03*
X159322435Y-65796348D03*
X159322435Y-69196348D03*
X166422435Y-72995348D03*
X166422435Y-76395348D03*
X159322435Y-72995348D03*
X159322435Y-76395348D03*
X166422435Y-58597348D03*
X166422435Y-61997348D03*
D18*
X197309000Y-100665000D03*
X200709000Y-100665000D03*
X206434000Y-54340000D03*
X203034000Y-54340000D03*
D17*
X166422435Y-65796348D03*
X166422435Y-69196348D03*
X203634000Y-85315000D03*
X203634000Y-88715000D03*
M02*
