G04 #@! TF.GenerationSoftware,KiCad,Pcbnew,9.0.2*
G04 #@! TF.CreationDate,2025-06-05T15:31:19+09:00*
G04 #@! TF.ProjectId,Totemkyle,546f7465-6d6b-4796-9c65-2e6b69636164,0.3*
G04 #@! TF.SameCoordinates,Original*
G04 #@! TF.FileFunction,Paste,Top*
G04 #@! TF.FilePolarity,Positive*
%FSLAX46Y46*%
G04 Gerber Fmt 4.6, Leading zero omitted, Abs format (unit mm)*
G04 Created by KiCad (PCBNEW 9.0.2) date 2025-06-05 15:31:19*
%MOMM*%
%LPD*%
G01*
G04 APERTURE LIST*
G04 Aperture macros list*
%AMRotRect*
0 Rectangle, with rotation*
0 The origin of the aperture is its center*
0 $1 length*
0 $2 width*
0 $3 Rotation angle, in degrees counterclockwise*
0 Add horizontal line*
21,1,$1,$2,0,0,$3*%
G04 Aperture macros list end*
%ADD10R,1.500000X1.800000*%
%ADD11R,0.700000X1.000000*%
%ADD12R,1.000000X2.800000*%
%ADD13RotRect,1.800000X1.500000X170.000000*%
%ADD14RotRect,1.800000X1.500000X10.000000*%
G04 APERTURE END LIST*
D10*
X166422435Y-80194348D03*
X166422435Y-83594348D03*
X159322435Y-58597348D03*
X159322435Y-61997348D03*
X162872435Y-65796348D03*
X162872435Y-69196348D03*
D11*
X67500000Y-53200000D03*
X64500000Y-53200000D03*
X63000000Y-53200000D03*
D12*
X69100000Y-51300000D03*
X61150000Y-51300000D03*
D13*
X267674173Y-98795202D03*
X264325827Y-98204798D03*
D10*
X162872435Y-58597348D03*
X162872435Y-61997348D03*
X137127565Y-80194348D03*
X137127565Y-83594348D03*
D11*
X237300000Y-53200000D03*
X234300000Y-53200000D03*
X232800000Y-53200000D03*
D12*
X238900000Y-51300000D03*
X230950000Y-51300000D03*
D10*
X137127565Y-65796348D03*
X137127565Y-69196348D03*
X137127565Y-58597348D03*
X137127565Y-61997348D03*
X159322435Y-80194348D03*
X159322435Y-83594348D03*
X162872435Y-80194348D03*
X162872435Y-83594348D03*
X162872435Y-72995348D03*
X162872435Y-76395348D03*
X159322435Y-65796348D03*
X159322435Y-69196348D03*
X166422435Y-72995348D03*
X166422435Y-76395348D03*
X133577565Y-65796348D03*
X133577565Y-69196348D03*
D14*
X32325827Y-98795202D03*
X35674173Y-98204798D03*
D10*
X140677565Y-58592348D03*
X140677565Y-61992348D03*
X133577565Y-58597348D03*
X133577565Y-61997348D03*
X159322435Y-72995348D03*
X159322435Y-76395348D03*
X140677565Y-72995348D03*
X140677565Y-76395348D03*
X140677565Y-65796348D03*
X140677565Y-69196348D03*
X133577565Y-80194348D03*
X133577565Y-83594348D03*
X137127565Y-72995348D03*
X137127565Y-76395348D03*
X166422435Y-58597348D03*
X166422435Y-61997348D03*
X140677565Y-80194348D03*
X140677565Y-83594348D03*
X166422435Y-65796348D03*
X166422435Y-69196348D03*
X133577565Y-72995348D03*
X133577565Y-76395348D03*
M02*
