M48
; DRILL file {KiCad 9.0.2} date 2025-06-05T15:31:22+0900
; FORMAT={-:-/ absolute / metric / decimal}
; #@! TF.CreationDate,2025-06-05T15:31:22+09:00
; #@! TF.GenerationSoftware,Kicad,Pcbnew,9.0.2
; #@! TF.FileFunction,Plated,1,2,PTH
FMAT,2
METRIC
; #@! TA.AperFunction,Plated,PTH,ViaDrill
T1C0.300
; #@! TA.AperFunction,Plated,PTH,ComponentDrill
T2C1.000
; #@! TA.AperFunction,Plated,PTH,ComponentDrill
T3C1.016
; #@! TA.AperFunction,Plated,PTH,ComponentDrill
T4C1.250
; #@! TA.AperFunction,Plated,PTH,ComponentDrill
T5C1.300
; #@! TA.AperFunction,Plated,PTH,ComponentDrill
T6C1.500
; #@! TA.AperFunction,Plated,PTH,ComponentDrill
T7C3.200
%
G90
G05
T1
X34.65Y-114.966
X34.826Y-69.285
X37.392Y-69.285
X38.15Y-110.55
X38.678Y-101.414
X38.751Y-99.69
X38.875Y-110.55
X38.9Y-109.85
X39.6Y-109.825
X39.623Y-109.007
X39.731Y-60.18
X39.908Y-69.285
X39.941Y-53.426
X42.482Y-53.426
X42.486Y-69.285
X45.023Y-53.426
X47.592Y-53.447
X48.805Y-60.194
X51.828Y-83.589
X54.803Y-100.364
X57.209Y-117.039
X57.309Y-120.09
X57.409Y-68.09
X57.409Y-118.19
X58.109Y-120.19
X61.759Y-53.89
X61.759Y-56.565
X65.224Y-51.376
X72.528Y-68.564
X73.703Y-85.539
X74.709Y-53.865
X74.709Y-56.94
X74.716Y-52.811
X74.903Y-102.489
X78.075Y-47.0
X79.309Y-94.39
X93.403Y-57.964
X93.403Y-74.964
X93.403Y-91.989
X99.85Y-50.85
X101.909Y-115.79
X101.909Y-121.114
X103.155Y-59.557
X103.155Y-59.557
X103.155Y-59.557
X105.359Y-101.79
X116.909Y-68.99
X117.309Y-85.99
X117.875Y-50.5
X118.709Y-85.99
X118.836Y-105.343
X119.809Y-68.99
X120.309Y-101.819
X120.68Y-116.12
X121.118Y-113.094
X122.937Y-51.345
X122.937Y-53.898
X127.226Y-116.672
X128.309Y-93.39
X132.409Y-106.89
X133.575Y-108.0
X134.79Y-58.59
X134.79Y-65.78
X134.79Y-73.0
X134.831Y-86.99
X134.831Y-103.59
X136.509Y-107.99
X137.234Y-109.715
X137.409Y-88.69
X138.37Y-58.6
X138.37Y-65.77
X138.37Y-72.97
X138.37Y-85.004
X138.509Y-101.69
X140.675Y-85.0
X141.859Y-108.415
X141.865Y-58.585
X141.865Y-65.765
X141.865Y-72.985
X144.89Y-125.56
X144.909Y-101.39
X147.069Y-125.58
X158.109Y-91.63
X158.109Y-95.37
X158.109Y-108.415
X158.11Y-58.6
X158.11Y-65.8
X158.11Y-73.02
X158.688Y-105.96
X160.569Y-115.876
X161.66Y-58.61
X161.66Y-65.82
X161.66Y-73.01
X162.709Y-86.039
X162.86Y-107.99
X163.902Y-107.061
X164.929Y-85.48
X165.17Y-58.58
X165.17Y-65.81
X165.17Y-72.99
X165.17Y-108.329
X165.909Y-109.715
X166.41Y-107.99
X168.109Y-105.49
X169.259Y-67.49
X170.972Y-125.036
X171.984Y-117.89
X172.009Y-91.24
X173.659Y-85.99
X175.614Y-57.372
X177.359Y-85.99
X177.809Y-67.49
X178.75Y-112.209
X179.39Y-55.793
X180.409Y-103.99
X180.559Y-67.74
X181.059Y-84.24
X188.895Y-123.998
X193.481Y-51.333
X194.647Y-102.481
X194.686Y-68.6
X194.695Y-85.553
X195.259Y-103.99
X195.259Y-109.34
X195.809Y-67.74
X196.309Y-84.24
X197.309Y-101.94
X204.784Y-90.19
X206.609Y-90.19
X209.575Y-47.039
X222.91Y-91.79
X223.028Y-57.994
X223.028Y-74.994
X223.609Y-91.19
X228.09Y-54.033
X228.245Y-57.319
X233.459Y-54.44
X234.655Y-104.303
X235.038Y-51.368
X241.428Y-101.794
X242.428Y-84.894
X243.728Y-67.894
X247.023Y-101.791
X247.229Y-67.22
X247.959Y-54.515
X249.161Y-51.572
X250.16Y-53.16
X252.466Y-65.781
X255.001Y-65.781
X257.537Y-65.781
X258.428Y-116.294
X260.072Y-65.799
X261.43Y-96.21
X263.137Y-114.044
X264.328Y-82.894
X264.475Y-99.525
X265.109Y-111.963
X266.87Y-95.65
X266.918Y-97.088
X267.895Y-97.028
X268.41Y-96.31
X269.313Y-105.994
X276.628Y-111.894
T2
X33.58Y-51.98
X33.58Y-67.22
X36.12Y-51.98
X36.12Y-67.22
X38.66Y-51.98
X38.66Y-67.22
X41.2Y-51.98
X41.2Y-67.22
X43.74Y-51.98
X43.74Y-67.22
X46.28Y-51.98
X46.28Y-67.22
X48.82Y-51.98
X48.82Y-67.22
X120.5Y-51.35
X125.5Y-51.35
X174.5Y-51.35
X179.5Y-51.35
X251.18Y-51.98
X251.18Y-67.22
X253.72Y-51.98
X253.72Y-67.22
X256.26Y-51.98
X256.26Y-67.22
X258.8Y-51.98
X258.8Y-67.22
X261.34Y-51.98
X261.34Y-67.22
X263.88Y-51.98
X263.88Y-67.22
X266.42Y-51.98
X266.42Y-67.22
T3
X32.628Y-58.33
X32.628Y-60.87
X35.168Y-58.33
X35.168Y-60.87
X38.978Y-64.045
X40.883Y-64.045
X259.117Y-55.155
X261.022Y-55.155
X264.832Y-58.33
X264.832Y-60.87
X267.372Y-58.33
X267.372Y-60.87
T4
X87.0Y-99.0
X92.0Y-99.0
X208.0Y-99.0
X213.0Y-99.0
T5
X119.5Y-53.85
X126.5Y-53.85
X173.5Y-53.85
X180.5Y-53.85
T6
X93.103Y-121.114
X94.543Y-111.314
X97.083Y-111.314
X98.103Y-123.214
X99.623Y-111.314
X102.163Y-111.314
X105.003Y-109.739
X105.003Y-111.739
X196.778Y-121.114
X201.778Y-123.214
X207.353Y-124.214
X207.778Y-113.754
X207.778Y-116.294
X207.778Y-118.834
X207.778Y-121.374
X209.353Y-124.214
T7
X34.3Y-121.014
X57.0Y-52.7
X131.2Y-52.7
X139.5Y-112.0
X160.5Y-112.0
X168.8Y-52.7
X243.0Y-52.7
X265.7Y-121.0
M30
